<?xml version="1.0" encoding="UTF-8"?>
<svg version="1.1" xmlns="http://www.w3.org/2000/svg" width="344" height="148">
<path d="M0 0 C-1.31972738 16.01037686 -14.61794716 31.44169831 -24.8125 43.3203125 C-27.1265442 46.15501665 -28.07933551 48.48473557 -29 52 C-26.36 49.36 -23.72 46.72 -21 44 C-19.515 44.495 -19.515 44.495 -18 45 C-19.52708963 48.43595166 -21.59927045 51.11912454 -24 54 C-15.93846505 52.95980194 -10.53376515 50.02544115 -5 44 C-2.92261073 40.45539634 -1.35338469 36.87495407 0 33 C1.485 33.495 1.485 33.495 3 34 C2.58846263 38.97093824 2.20399168 43.44508386 0 48 C1.65 47.67 3.3 47.34 5 47 C5.66 47.99 6.32 48.98 7 50 C8.65 49.34 10.3 48.68 12 48 C12.99 48.99 13.98 49.98 15 51 C15.80824219 50.55527344 16.61648437 50.11054687 17.44921875 49.65234375 C18.51785156 49.08644531 19.58648437 48.52054688 20.6875 47.9375 C21.74324219 47.36902344 22.79898438 46.80054688 23.88671875 46.21484375 C27.22387221 44.91264209 28.65035056 44.91245148 32 46 C31.34 48.31 30.68 50.62 30 53 C30.51949219 52.52949219 31.03898438 52.05898437 31.57421875 51.57421875 C35.21294277 48.32559823 38.66419713 45.30339528 43 43 C44 44 44 44 44.09765625 46.50390625 C44.08025391 48.01791016 44.08025391 48.01791016 44.0625 49.5625 C44.05347656 50.57441406 44.04445312 51.58632812 44.03515625 52.62890625 C44.01775391 53.80259766 44.01775391 53.80259766 44 55 C53.39180093 51.52911705 60.79779958 46.57050165 65.74609375 37.72265625 C66.15988281 37.15417969 66.57367188 36.58570313 67 36 C67.99 36 68.98 36 70 36 C69.01 40.95 69.01 40.95 68 46 C69.98 45.01 69.98 45.01 72 44 C74.125 44.125 74.125 44.125 76 45 C77.72101535 47.58152302 78 48.84918025 78 52 C84.1830613 50.92041787 88.79176419 49.29462009 94.15234375 46.0234375 C96 45 96 45 98 45 C98.268125 44.2575 98.53625 43.515 98.8125 42.75 C99.94229421 40.13363446 101.20893202 38.19812889 103 36 C103.99 36.33 104.98 36.66 106 37 C105.34 39.97 104.68 42.94 104 46 C105.98 45.01 105.98 45.01 108 44 C110.25 44.375 110.25 44.375 112 45 C112.66 47.31 113.32 49.62 114 52 C120.20940658 50.9158179 124.73070001 49.31290591 130.0546875 45.92578125 C132 45 132 45 135 46 C135 46.66 135 47.32 135 48 C132.48046875 49.69140625 132.48046875 49.69140625 129.1875 51.5625 C128.10855469 52.18253906 127.02960938 52.80257812 125.91796875 53.44140625 C121.21477214 55.95355545 117.25175118 56.62625485 112 56 C109.5673686 54.29715802 108.68196327 52.5229449 107 50 C103.72001589 52.10856121 100.71586153 54.20747888 97.8125 56.8125 C96.4203125 57.8953125 96.4203125 57.8953125 95 59 C94.01 58.67 93.02 58.34 92 58 C92 56.35 92 54.7 92 53 C90.845 53.495 89.69 53.99 88.5 54.5 C84.08199444 56.14792392 80.69794635 56.47775726 76 56 C73.32568511 54.18836733 73.04079641 53.12238923 72 50 C67.21016601 51.34714081 64.34934436 54.25618126 60.8671875 57.63671875 C60.25101563 58.08660156 59.63484375 58.53648438 59 59 C58.01 58.67 57.02 58.34 56 58 C56 56.68 56 55.36 56 54 C55.48050781 54.27714844 54.96101562 54.55429688 54.42578125 54.83984375 C46.60939948 58.8997389 46.60939948 58.8997389 43 59 C40.6875 57.8125 40.6875 57.8125 39 56 C39 54.68 39 53.36 39 52 C38.55269531 52.3609375 38.10539063 52.721875 37.64453125 53.09375 C32.69675621 56.8916157 32.69675621 56.8916157 29.1875 57.4375 C27 57 27 57 25 55 C25 53.68 25 52.36 25 51 C24.3709375 51.30035156 23.741875 51.60070312 23.09375 51.91015625 C17.02114143 54.60807722 13.49084822 55.15908004 7 54 C6.01 54.99 6.01 54.99 5 56 C3.68 56 2.36 56 1 56 C1 55.01 1 54.02 1 53 C0.34 53 -0.32 53 -1 53 C-1.2371875 53.55171875 -1.474375 54.1034375 -1.71875 54.671875 C-3.31245143 57.56774711 -5.28917273 59.79512037 -7.5 62.25 C-8.2940625 63.14203125 -9.088125 64.0340625 -9.90625 64.953125 C-12 67 -12 67 -14 67 C-13.45144652 62.428721 -12.58255197 58.32564205 -11 54 C-11.50789063 54.30035156 -12.01578125 54.60070312 -12.5390625 54.91015625 C-17.14223431 57.45310697 -19.72977653 58.47076004 -25 57 C-28.02898657 56.69217798 -28.02898657 56.69217798 -30 58.5625 C-30.66 59.036875 -31.32 59.51125 -32 60 C-33.485 59.505 -33.485 59.505 -35 59 C-35 56.36 -35 53.72 -35 51 C-35.86882812 51.5053125 -36.73765625 52.010625 -37.6328125 52.53125 C-38.79649759 53.188169 -39.96058155 53.84438179 -41.125 54.5 C-42.26195312 55.1496875 -43.39890625 55.799375 -44.5703125 56.46875 C-48.10898801 58.04865979 -50.18288797 58.47233329 -54 58 C-56.30275556 56.1329009 -57.67823871 54.64352259 -59 52 C-69.65300767 60.71464086 -78.16881975 68.293249 -84 81 C-92.56941742 99.35435504 -92.56941742 99.35435504 -99.05078125 101.76171875 C-99.69402344 101.84035156 -100.33726563 101.91898437 -101 102 C-101.66 101.34 -102.32 100.68 -103 100 C-103 93.27808274 -98.51492804 87.74211692 -94.140625 82.97265625 C-87.56713417 75.70237539 -84.5459154 67.26510678 -81.078125 58.2421875 C-79.29321018 53.65645775 -77.43337958 49.28314374 -75 45 C-73.515 44.505 -73.515 44.505 -72 44 C-72.64653327 50.95023264 -74.86027248 57.38177303 -77 64 C-76.63390625 63.53851563 -76.2678125 63.07703125 -75.890625 62.6015625 C-70.20666205 55.75374047 -62.4226615 47.28249335 -54 44 C-53.01 44 -52.02 44 -51 44 C-51.33 47.63 -51.66 51.26 -52 55 C-50.535625 54.46375 -49.07125 53.9275 -47.5625 53.375 C-46.73878906 53.07335937 -45.91507813 52.77171875 -45.06640625 52.4609375 C-36.40516813 48.33443679 -31.95485332 44.6779255 -28.5625 35.625 C-12.33483948 -3.70045184 -12.33483948 -3.70045184 0 0 Z M-5 3 C-6.47885109 4.9912331 -7.81258991 6.96419897 -9.125 9.0625 C-9.5173584 9.68286133 -9.9097168 10.30322266 -10.31396484 10.94238281 C-13.23583179 15.62815258 -15.98755799 20.39888475 -18.625 25.25 C-18.97965332 25.89332275 -19.33430664 26.53664551 -19.69970703 27.19946289 C-20.53185326 28.7666365 -21.27502284 30.38046038 -22 32 C-21.67 32.66 -21.34 33.32 -21 34 C-13.8568155 24.13952341 -8.37198548 13.91011484 -3 3 C-3.66 3 -4.32 3 -5 3 Z M-94 88 C-95.08474655 89.23426567 -96.11860865 90.51355302 -97.125 91.8125 C-97.68445313 92.52019531 -98.24390625 93.22789063 -98.8203125 93.95703125 C-99.20960937 94.63121094 -99.59890625 95.30539063 -100 96 C-99.67 96.99 -99.34 97.98 -99 99 C-95.90407165 95.4912812 -94.25805377 92.50802601 -93 88 C-93.33 88 -93.66 88 -94 88 Z " fill="#73D2CF" transform="translate(161,25)"/>
<path d="M0 0 C0.59554687 0.20625 1.19109375 0.4125 1.8046875 0.625 C0.47326104 16.77730516 -13.5845959 34.74668481 -25.1953125 45.625 C-23.61739512 38.82023131 -20.71633732 34.31662494 -16.1328125 29.08203125 C-14.00927751 26.38908062 -12.67699274 23.7147053 -11.1953125 20.625 C-10.52516521 19.42616615 -9.84363162 18.23364417 -9.15234375 17.046875 C-8.80107422 16.44359375 -8.44980469 15.8403125 -8.08789062 15.21875 C-7.35802901 13.97283794 -6.62620588 12.72807318 -5.89257812 11.484375 C-3.86540017 8.26848197 -3.86540017 8.26848197 -3.1953125 4.625 C-8.12712394 12.4983741 -12.84857316 20.40900405 -17.1953125 28.625 C-17.5253125 27.305 -17.8553125 25.985 -18.1953125 24.625 C-19.1853125 24.955 -20.1753125 25.285 -21.1953125 25.625 C-18.79028434 18.70223937 -8.64716254 -1.47709538 0 0 Z " fill="#70C9C6" transform="translate(159.1953125,24.375)"/>
<path d="M0 0 C0.66 0 1.32 0 2 0 C2.495 1.485 2.495 1.485 3 3 C2.34 3 1.68 3 1 3 C0.67 3.99 0.34 4.98 0 6 C-0.99 6 -1.98 6 -3 6 C-3.721875 6.7425 -4.44375 7.485 -5.1875 8.25 C-9.32837143 12.29885206 -13.50654093 14.61639091 -19.25 15.5 C-22.6937493 14.87386376 -23.85068323 13.70654705 -26 11 C-26.33 10.34 -26.66 9.68 -27 9 C-30.63 11.97 -34.26 14.94 -38 18 C-38.66 17.67 -39.32 17.34 -40 17 C-37.71112333 12.48717933 -34.6004061 9.7405082 -30.625 6.75 C-30.06039062 6.30398437 -29.49578125 5.85796875 -28.9140625 5.3984375 C-25.39785071 2.71244238 -23.49219092 1.89843818 -19 1 C-19.33 4.63 -19.66 8.26 -20 12 C-8.42018402 8.13311957 -8.42018402 8.13311957 0 0 Z " fill="#83CFCE" transform="translate(129,68)"/>
<path d="M0 0 C0.66 0.66 1.32 1.32 2 2 C1.625 4.125 1.625 4.125 1 6 C2.32 4.68 3.64 3.36 5 2 C3.18738292 9.06920662 -1.25493568 16.40394854 -7 21 C-9.125 21.875 -9.125 21.875 -11 22 C-11.66 21.34 -12.32 20.68 -13 20 C-13 13.93129551 -9.43330953 9.69731403 -6 5 C-5.50242187 4.27039063 -5.00484375 3.54078125 -4.4921875 2.7890625 C-3 1 -3 1 0 0 Z M-4 8 C-5.08474655 9.23426567 -6.11860865 10.51355302 -7.125 11.8125 C-7.68445312 12.52019531 -8.24390625 13.22789063 -8.8203125 13.95703125 C-9.20960937 14.63121094 -9.59890625 15.30539063 -10 16 C-9.67 16.99 -9.34 17.98 -9 19 C-5.90407165 15.4912812 -4.25805377 12.50802601 -3 8 C-3.33 8 -3.66 8 -4 8 Z " fill="#7DD5D5" transform="translate(71,105)"/>
<path d="M0 0 C0.66 0 1.32 0 2 0 C1.35346673 6.95023264 -0.86027248 13.38177303 -3 20 C-1.35 18.02 0.3 16.04 2 14 C2.7109375 15.734375 2.7109375 15.734375 3 18 C1.6015625 20.140625 1.6015625 20.140625 -0.375 22.25 C-1.02210937 22.95640625 -1.66921875 23.6628125 -2.3359375 24.390625 C-4 26 -4 26 -5 26 C-5 23.03 -5 20.06 -5 17 C-5.99 17.66 -6.98 18.32 -8 19 C-7.44208397 14.34837514 -6.15058199 10.8387436 -4 6.6875 C-3.46375 5.63949219 -2.9275 4.59148437 -2.375 3.51171875 C-1 1 -1 1 0 0 Z " fill="#6ECFCC" transform="translate(87,69)"/>
<path d="M0 0 C0.66 0.33 1.32 0.66 2 1 C1.835 1.61875 1.67 2.2375 1.5 2.875 C0.92365356 4.96063386 0.92365356 4.96063386 1 7 C1.99 7 2.98 7 4 7 C3.8125 8.875 3.8125 8.875 3 11 C0.4375 12.25 0.4375 12.25 -2 13 C-2.33 11.35 -2.66 9.7 -3 8 C-3.77923828 8.41572266 -3.77923828 8.41572266 -4.57421875 8.83984375 C-12.39060052 12.8997389 -12.39060052 12.8997389 -16 13 C-18.3125 11.5625 -18.3125 11.5625 -20 10 C-19.67 8.68 -19.34 7.36 -19 6 C-18.71125 6.639375 -18.4225 7.27875 -18.125 7.9375 C-17.17176549 10.15206079 -17.17176549 10.15206079 -15 11 C-15 10.34 -15 9.68 -15 9 C-14.01 8.62875 -13.02 8.2575 -12 7.875 C-7.47562436 5.9597735 -3.8097827 3.0577217 0 0 Z " fill="#82DDDA" transform="translate(220,71)"/>
<path d="M0 0 C0.26692169 4.69922657 -0.49062844 7.8904793 -2.375 12.1875 C-2.81585938 13.21230469 -3.25671875 14.23710938 -3.7109375 15.29296875 C-5 18 -5 18 -7 21 C-7.99 21 -8.98 21 -10 21 C-11.05830736 17.81889675 -10.99308846 16.19645871 -9.63671875 13.14453125 C-9.32669922 12.44005859 -9.01667969 11.73558594 -8.69726562 11.00976562 C-8.36404297 10.28466797 -8.03082031 9.55957031 -7.6875 8.8125 C-7.36587891 8.07580078 -7.04425781 7.33910156 -6.71289062 6.58007812 C-3.76487034 0 -3.76487034 0 0 0 Z " fill="#71D6D3" transform="translate(141,49)"/>
<path d="M0 0 C0.99 0.33 1.98 0.66 3 1 C2.01 4.3 1.02 7.6 0 11 C-0.99 11 -1.98 11 -3 11 C-3.33 13.31 -3.66 15.62 -4 18 C-4.99 18.33 -5.98 18.66 -7 19 C-7.66 18.34 -8.32 17.68 -9 17 C-8.7578125 15.0546875 -8.7578125 15.0546875 -8.125 12.875 C-7.92132813 12.15054688 -7.71765625 11.42609375 -7.5078125 10.6796875 C-7.34023438 10.12539062 -7.17265625 9.57109375 -7 9 C-6.34 9 -5.68 9 -5 9 C-4.5978125 7.88625 -4.5978125 7.88625 -4.1875 6.75 C-3.05770579 4.13363446 -1.79106798 2.19812889 0 0 Z " fill="#71DCD9" transform="translate(264,61)"/>
<path d="M0 0 C0.99 0.33 1.98 0.66 3 1 C0.69 3.97 -1.62 6.94 -4 10 C-3.67 10.33 -3.34 10.66 -3 11 C-2.01 10.01 -1.02 9.02 0 8 C0.99 8.66 1.98 9.32 3 10 C-1.36363636 14.72727273 -1.36363636 14.72727273 -4.1875 15.9375 C-4.785625 15.958125 -5.38375 15.97875 -6 16 C-6.66 15.34 -7.32 14.68 -8 14 C-7.70882621 9.63239319 -6.61008124 6.5135709 -4 3 C-3.01 2.67 -2.02 2.34 -1 2 C-0.67 1.34 -0.34 0.68 0 0 Z " fill="#80CAC5" transform="translate(66,111)"/>
<path d="M0 0 C0.99 0.33 1.98 0.66 3 1 C3 1.66 3 2.32 3 3 C0.48046875 4.69140625 0.48046875 4.69140625 -2.8125 6.5625 C-3.89144531 7.18253906 -4.97039062 7.80257812 -6.08203125 8.44140625 C-9.63870635 10.3411564 -12.20983611 11.1277076 -16.1875 11.0625 C-18.0746875 11.0315625 -18.0746875 11.0315625 -20 11 C-20 10.67 -20 10.34 -20 10 C-18.35 9.67 -16.7 9.34 -15 9 C-15 8.34 -15 7.68 -15 7 C-14.33613281 6.74605469 -13.67226563 6.49210937 -12.98828125 6.23046875 C-7.36405216 4.043735 -7.36405216 4.043735 -2.0625 1.1875 C-1.381875 0.795625 -0.70125 0.40375 0 0 Z " fill="#8DD6D5" transform="translate(293,70)"/>
<path d="M0 0 C0.66 0 1.32 0 2 0 C2.33 0.99 2.66 1.98 3 3 C2.34 3 1.68 3 1 3 C0.67 3.99 0.34 4.98 0 6 C-0.99 6 -1.98 6 -3 6 C-3.721875 6.7425 -4.44375 7.485 -5.1875 8.25 C-8.39529334 11.38650904 -11.70597709 13.61657003 -16 15 C-16.99 14.67 -17.98 14.34 -19 14 C-18.67 13.01 -18.34 12.02 -18 11 C-16.12144513 10.29554193 -14.23937245 9.59889606 -12.33984375 8.953125 C-7.95878554 7.16852032 -2.17436438 4.34872875 0 0 Z " fill="#91D3CF" transform="translate(129,68)"/>
<path d="M0 0 C0.99 0 1.98 0 3 0 C2.62964591 6.78982507 0.59523599 11.26884891 -3 17 C-3.99 17 -4.98 17 -6 17 C-5.40199745 13.17140894 -4.25098656 10.22764136 -2.4375 6.8125 C-0.57614598 3.56949726 -0.57614598 3.56949726 0 0 Z " fill="#87CCCD" transform="translate(158,25)"/>
<path d="M0 0 C2.56687367 3.8503105 1.83288724 5.58569763 1 10 C1.66 10.33 2.32 10.66 3 11 C3 11.66 3 12.32 3 13 C-2.875 12.125 -2.875 12.125 -4 11 C-3.984375 9.00390625 -3.984375 9.00390625 -3.75 6.5625 C-3.68296875 5.75941406 -3.6159375 4.95632812 -3.546875 4.12890625 C-3 2 -3 2 0 0 Z " fill="#64D4D2" transform="translate(108,70)"/>
<path d="M0 0 C0 1.65 0 3.3 0 5 C-9.17282268 9.89368952 -9.17282268 9.89368952 -13 10 C-15.3125 8.5625 -15.3125 8.5625 -17 7 C-16.67 5.68 -16.34 4.36 -16 3 C-15.71125 3.639375 -15.4225 4.27875 -15.125 4.9375 C-14.17176549 7.15206079 -14.17176549 7.15206079 -12 8 C-12 7.34 -12 6.68 -12 6 C-10.9275 5.566875 -9.855 5.13375 -8.75 4.6875 C-6.14472025 3.57999241 -2.52539445 0 0 0 Z " fill="#89D0CF" transform="translate(217,74)"/>
<path d="M0 0 C-0.27734375 1.890625 -0.27734375 1.890625 -1 4 C-6.57733135 6.73974171 -10.84237788 7.32987261 -17 7 C-17 6.67 -17 6.34 -17 6 C-15.35 6 -13.7 6 -12 6 C-12.33 5.01 -12.66 4.02 -13 3 C-11.58603098 2.49242138 -10.16868271 1.99425075 -8.75 1.5 C-7.96109375 1.2215625 -7.1721875 0.943125 -6.359375 0.65625 C-4 0 -4 0 0 0 Z " fill="#90D6D2" transform="translate(254,74)"/>
<path d="M0 0 C2.8992226 0.46761655 3.86675182 0.86675182 6 3 C6 3.99 6 4.98 6 6 C6.99 6.33 7.98 6.66 9 7 C9 7.66 9 8.32 9 9 C6.1875 9.3125 6.1875 9.3125 3 9 C0.95691589 6.39330648 0.04553582 4.13660747 -1 1 C-0.67 0.67 -0.34 0.34 0 0 Z " fill="#61D4D4" transform="translate(233,71)"/>
<path d="M0 0 C1.8125 1.3125 1.8125 1.3125 2.8125 4.3125 C-0.1875 5.3125 -0.1875 5.3125 -2.75 5.25 C-5.37139309 5.03722678 -5.37139309 5.03722678 -7.1875 7.3125 C-8.5075 7.3125 -9.8275 7.3125 -11.1875 7.3125 C-11.1875 6.6525 -11.1875 5.9925 -11.1875 5.3125 C-9.8675 5.3125 -8.5475 5.3125 -7.1875 5.3125 C-7.105 4.69375 -7.0225 4.075 -6.9375 3.4375 C-6.1875 1.3125 -6.1875 1.3125 -4.375 -0.0625 C-2.1875 -0.6875 -2.1875 -0.6875 0 0 Z " fill="#73CDCA" transform="translate(173.1875,73.6875)"/>
<path d="M0 0 C0.5497272 5.63470383 -1.04952165 8.38987758 -4 13 C-4.99 12.67 -5.98 12.34 -7 12 C-6.690625 11.29875 -6.38125 10.5975 -6.0625 9.875 C-4.8876992 6.99084346 -4.8876992 6.99084346 -4.5 3.75 C-4.335 2.8425 -4.17 1.935 -4 1 C-2 0 -2 0 0 0 Z " fill="#66D1CB" transform="translate(141,49)"/>
<path d="M0 0 C0 0.99 0 1.98 0 3 C-1.32 2.67 -2.64 2.34 -4 2 C-4 2.66 -4 3.32 -4 4 C-5.96875 5.5078125 -5.96875 5.5078125 -8.5 7.125 C-9.3353125 7.66382812 -10.170625 8.20265625 -11.03125 8.7578125 C-11.6809375 9.16773437 -12.330625 9.57765625 -13 10 C-13.33 9.01 -13.66 8.02 -14 7 C-13.38125 6.7525 -12.7625 6.505 -12.125 6.25 C-9.86253506 5.17856271 -9.86253506 5.17856271 -9 3 C-8 1 -8 1 -6.125 -0.3125 C-3.64990694 -1.1132654 -2.41712366 -0.86325845 0 0 Z " fill="#79C9C9" transform="translate(237,70)"/>
<path d="M0 0 C0.66 0.33 1.32 0.66 2 1 C1.01 1.33 0.02 1.66 -1 2 C-0.67 2.99 -0.34 3.98 0 5 C-1.5552912 5.70365602 -3.11964827 6.38729378 -4.6875 7.0625 C-5.55761719 7.44535156 -6.42773438 7.82820313 -7.32421875 8.22265625 C-10.32213864 9.0935848 -12.03280153 8.85006226 -15 8 C-14.401875 7.896875 -13.80375 7.79375 -13.1875 7.6875 C-10.95518938 7.1737044 -10.95518938 7.1737044 -9.6171875 5.59765625 C-7.83955949 3.84149717 -6.16616269 2.86641421 -3.9375 1.75 C-3.24527344 1.39421875 -2.55304688 1.0384375 -1.83984375 0.671875 C-1.23269531 0.45015625 -0.62554687 0.2284375 0 0 Z " fill="#8CCFD2" transform="translate(186,71)"/>
<path d="M0 0 C1 3 1 3 1 5 C2.65 3.68 4.3 2.36 6 1 C5.68097587 6.26389811 2.60721435 9.44402449 -1 13 C-1.33 13 -1.66 13 -2 13 C-2.16682272 8.07872966 -2.24828052 4.49656104 0 0 Z " fill="#6EC6C2" transform="translate(84,82)"/>
<path d="M0 0 C1.03159626 3.09478879 0.97482862 4.52631393 0.5625 7.6875 C0.46066406 8.49574219 0.35882813 9.30398437 0.25390625 10.13671875 C0.17011719 10.75160156 0.08632812 11.36648437 0 12 C-1.32 12 -2.64 12 -4 12 C-4 13.32 -4 14.64 -4 16 C-4.66 16 -5.32 16 -6 16 C-5.09864057 10.23129963 -3.23616246 4.85424369 0 0 Z " fill="#5CD6D1" transform="translate(82,84)"/>
<path d="M0 0 C3 1 3 1 4.1875 3.375 C5 6 5 6 5 9 C4.01 10.485 4.01 10.485 3 12 C2.01 11.67 1.02 11.34 0 11 C0 7.33333333 0 3.66666667 0 0 Z " fill="#76D3D1" transform="translate(126,73)"/>
<path d="M0 0 C0.66 0.33 1.32 0.66 2 1 C2.103125 1.639375 2.20625 2.27875 2.3125 2.9375 C2.539375 3.618125 2.76625 4.29875 3 5 C5.49034386 6.29660434 5.49034386 6.29660434 8 7 C7.67 7.66 7.34 8.32 7 9 C4.1875 9.3125 4.1875 9.3125 1 9 C-0.88599343 6.61107499 -2 5.08148442 -2 2 C-1.34 2 -0.68 2 0 2 C0 1.34 0 0.68 0 0 Z " fill="#6CD2CF" transform="translate(271,71)"/>
<path d="M0 0 C0.66 0.66 1.32 1.32 2 2 C0.68 4.64 -0.64 7.28 -2 10 C-2.33 9.34 -2.66 8.68 -3 8 C-2.67 7.34 -2.34 6.68 -2 6 C-2.99 6 -3.98 6 -5 6 C-5.33 6.99 -5.66 7.98 -6 9 C-6.66 9 -7.32 9 -8 9 C-6.6284197 6.04582705 -5.13179822 3.47288594 -3 1 C-2.01 0.67 -1.02 0.34 0 0 Z " fill="#88DCD9" transform="translate(71,105)"/>
<path d="M0 0 C0.66 0.33 1.32 0.66 2 1 C2 1.99 2 2.98 2 4 C1.01 4.33 0.02 4.66 -1 5 C-2.38576923 6.62332967 -3.72641268 8.28724465 -5 10 C-5.33 9.34 -5.66 8.68 -6 8 C-6.33 8.66 -6.66 9.32 -7 10 C-7.66 9.67 -8.32 9.34 -9 9 C-7.87895467 7.68412059 -6.75303035 6.37239647 -5.625 5.0625 C-4.99851563 4.33160156 -4.37203125 3.60070312 -3.7265625 2.84765625 C-2 1 -2 1 0 0 Z " fill="#77C7C3" transform="translate(157,24)"/>
<path d="M0 0 C-0.33 0.99 -0.66 1.98 -1 3 C-1.99 3 -2.98 3 -4 3 C-4.2475 3.639375 -4.495 4.27875 -4.75 4.9375 C-6 7 -6 7 -7.875 7.625 C-8.57625 7.74875 -9.2775 7.8725 -10 8 C-11.3479743 8.63654342 -12.68596724 9.29605388 -14 10 C-12.55224845 6.40018534 -10.79045708 4.84896717 -7.5625 2.75 C-6.78003906 2.22921875 -5.99757813 1.7084375 -5.19140625 1.171875 C-3 0 -3 0 0 0 Z " fill="#89D8D8" transform="translate(110,69)"/>
<path d="M0 0 C1.32 0 2.64 0 4 0 C4 0.99 4 1.98 4 3 C2.37064759 4.37868281 0.70250393 5.71274093 -1 7 C-1.33 7.66 -1.66 8.32 -2 9 C-2.99 8.67 -3.98 8.34 -5 8 C-2.25 2.25 -2.25 2.25 0 0 Z " fill="#78CAC2" transform="translate(92,59)"/>
<path d="M0 0 C0.99 0.33 1.98 0.66 3 1 C3 3 3 3 0.75 5.5625 C-1.73730791 7.76715929 -2.79635595 8.64403955 -6 9 C-5.12467243 5.71752159 -4.49145848 3.49145848 -2.0625 1.0625 C-1.381875 0.711875 -0.70125 0.36125 0 0 Z " fill="#79CAC5" transform="translate(113,59)"/>
<path d="M0 0 C0.99 0.33 1.98 0.66 3 1 C2.01 3.97 1.02 6.94 0 10 C-0.33 8.68 -0.66 7.36 -1 6 C-1.99 7.32 -2.98 8.64 -4 10 C-4.66 9.67 -5.32 9.34 -6 9 C-4.02 6.03 -2.04 3.06 0 0 Z " fill="#7ACBC7" transform="translate(264,61)"/>
<path d="M0 0 C0.99 0 1.98 0 3 0 C2.67 1.98 2.34 3.96 2 6 C0.68 5.67 -0.64 5.34 -2 5 C-2 6.32 -2 7.64 -2 9 C-3.32 9.33 -4.64 9.66 -6 10 C-5.18957164 8.51969728 -4.37659652 7.04078858 -3.5625 5.5625 C-2.88380859 4.32693359 -2.88380859 4.32693359 -2.19140625 3.06640625 C-1 1 -1 1 0 0 Z " fill="#79C9C7" transform="translate(228,61)"/>
<path d="M0 0 C1.10090418 3.30271253 1.13798487 3.84865729 0 7 C-1.26307467 9.38238474 -2.61818002 11.68210843 -4 14 C-4.97099482 11.37831399 -5.06599958 10.20307562 -4.1875 7.5 C-3.795625 6.675 -3.40375 5.85 -3 5 C-2.649375 4.2575 -2.29875 3.515 -1.9375 2.75 C-1 1 -1 1 0 0 Z " fill="#66D5D1" transform="translate(75,101)"/>
<path d="M0 0 C0 0.66 0 1.32 0 2 C-5.41176471 6 -5.41176471 6 -8 6 C-8 5.34 -8 4.68 -8 4 C-8.66 3.67 -9.32 3.34 -10 3 C-3.375 -1.125 -3.375 -1.125 0 0 Z " fill="#96D3CF" transform="translate(296,71)"/>
<path d="M0 0 C0.99 0.33 1.98 0.66 3 1 C1.60667426 4.36720387 0.0210714 5.9859524 -3 8 C-3 7.34 -3 6.68 -3 6 C-3.66 5.67 -4.32 5.34 -5 5 C-3.35 3.35 -1.7 1.7 0 0 Z " fill="#83C8CB" transform="translate(140,69)"/>
<path d="M0 0 C0.33 0.66 0.66 1.32 1 2 C1.66 2 2.32 2 3 2 C1.8141763 5.37503669 0.72426311 7.64722731 -2 10 C-2.66 8.68 -3.32 7.36 -4 6 C-2.68 4.02 -1.36 2.04 0 0 Z " fill="#75CACA" transform="translate(151,40)"/>
<path d="M0 0 C1.32 0.66 2.64 1.32 4 2 C3.34 2 2.68 2 2 2 C1.773125 2.5775 1.54625 3.155 1.3125 3.75 C-0.33038023 6.5663661 -2.39533227 8.08077114 -5 10 C-4.6875 8.0625 -4.6875 8.0625 -4 6 C-3.01 5.67 -2.02 5.34 -1 5 C-0.67 3.35 -0.34 1.7 0 0 Z " fill="#77CECD" transform="translate(158,76)"/>
<path d="M0 0 C0.66 0.33 1.32 0.66 2 1 C2 2.98 2 4.96 2 7 C1.01 6.67 0.02 6.34 -1 6 C-1 5.34 -1 4.68 -1 4 C-2.65 4.66 -4.3 5.32 -6 6 C-2.25 1.125 -2.25 1.125 0 0 Z " fill="#7EC6C3" transform="translate(203,68)"/>
<path d="M0 0 C0.99 0.33 1.98 0.66 3 1 C1.02 5.455 1.02 5.455 -1 10 C-1.66 9.01 -2.32 8.02 -3 7 C-2.67 6.01 -2.34 5.02 -2 4 C-1.34 4 -0.68 4 0 4 C0 2.68 0 1.36 0 0 Z " fill="#74CDCA" transform="translate(78,96)"/>
<path d="M0 0 C0.66 0 1.32 0 2 0 C1.58578031 4.83256305 -0.46413986 6.82679218 -4 10 C-3.52449439 8.51965236 -3.04448784 7.04074979 -2.5625 5.5625 C-2.29566406 4.73878906 -2.02882812 3.91507813 -1.75390625 3.06640625 C-1 1 -1 1 0 0 Z " fill="#79CAC9" transform="translate(138,60)"/>
<path d="M0 0 C2.31 0 4.62 0 7 0 C5.68 1.32 4.36 2.64 3 4 C2.01 3.67 1.02 3.34 0 3 C0 2.01 0 1.02 0 0 Z " fill="#84D0CA" transform="translate(217,80)"/>
<path d="M0 0 C1.32 0.66 2.64 1.32 4 2 C1.69 3.65 -0.62 5.3 -3 7 C-3.33 6.01 -3.66 5.02 -4 4 C-2.68 3.34 -1.36 2.68 0 2 C0 1.34 0 0.68 0 0 Z " fill="#83CFCD" transform="translate(227,73)"/>
<path d="M0 0 C0.33 0.66 0.66 1.32 1 2 C1.66 2.33 2.32 2.66 3 3 C3 3.66 3 4.32 3 5 C0.03 4.505 0.03 4.505 -3 4 C-3 3.01 -3 2.02 -3 1 C-2.34 1.33 -1.68 1.66 -1 2 C-0.67 1.34 -0.34 0.68 0 0 Z " fill="#7ACECD" transform="translate(108,78)"/>
<path d="M0 0 C0.33 0.99 0.66 1.98 1 3 C0.34 3 -0.32 3 -1 3 C-1.33 3.99 -1.66 4.98 -2 6 C-2.99 5.67 -3.98 5.34 -5 5 C-5 3 -5 3 -3.625 1.375 C-2 0 -2 0 0 0 Z " fill="#8ADEDB" transform="translate(131,68)"/>
<path d="M0 0 C0.66 1.32 1.32 2.64 2 4 C1.01 5.485 1.01 5.485 0 7 C-0.99 6.67 -1.98 6.34 -3 6 C-2.01 4.02 -1.02 2.04 0 0 Z " fill="#5CD6D1" transform="translate(137,55)"/>
<path d="M0 0 C0.33 0.99 0.66 1.98 1 3 C1.99 3.33 2.98 3.66 4 4 C4 4.66 4 5.32 4 6 C2.02 6 0.04 6 -2 6 C-2.33 5.34 -2.66 4.68 -3 4 C-2.01 4 -1.02 4 0 4 C0 2.68 0 1.36 0 0 Z " fill="#74CBC8" transform="translate(238,74)"/>
</svg>
